<mxfile host="app.diagrams.net" modified="2022-07-19T02:09:34.619Z" agent="5.0 (Windows NT 10.0; Win64; x64) AppleWebKit/537.36 (KHTML, like Gecko) Chrome/103.0.0.0 Safari/537.36" etag="iYcf1WMGKruFPH-f4IwM" version="20.1.1" type="github">
  <diagram id="C5RBs43oDa-KdzZeNtuy" name="Page-1">
    <mxGraphModel dx="1580" dy="1869" grid="1" gridSize="10" guides="1" tooltips="1" connect="1" arrows="1" fold="1" page="1" pageScale="1" pageWidth="827" pageHeight="1169" math="0" shadow="0">
      <root>
        <mxCell id="WIyWlLk6GJQsqaUBKTNV-0" />
        <mxCell id="WIyWlLk6GJQsqaUBKTNV-1" parent="WIyWlLk6GJQsqaUBKTNV-0" />
        <mxCell id="Fjjj6daxXpXyd-0cmwNe-0" value="" style="swimlane;startSize=0;" vertex="1" parent="WIyWlLk6GJQsqaUBKTNV-1">
          <mxGeometry x="40" y="-1120" width="1280" height="500" as="geometry" />
        </mxCell>
        <mxCell id="Fjjj6daxXpXyd-0cmwNe-1" value="&lt;h1&gt;Chess Layer&lt;/h1&gt;" style="text;html=1;strokeColor=none;fillColor=none;spacing=5;spacingTop=-20;whiteSpace=wrap;overflow=hidden;rounded=0;" vertex="1" parent="Fjjj6daxXpXyd-0cmwNe-0">
          <mxGeometry x="20" y="10" width="190" height="120" as="geometry" />
        </mxCell>
        <mxCell id="Fjjj6daxXpXyd-0cmwNe-2" value="Vertical Container" style="swimlane;" vertex="1" parent="Fjjj6daxXpXyd-0cmwNe-0">
          <mxGeometry x="270" y="60" width="200" height="200" as="geometry" />
        </mxCell>
        <mxCell id="Fjjj6daxXpXyd-0cmwNe-3" value="Vertical Container" style="swimlane;" vertex="1" parent="Fjjj6daxXpXyd-0cmwNe-0">
          <mxGeometry x="620" y="50" width="200" height="200" as="geometry" />
        </mxCell>
        <mxCell id="Fjjj6daxXpXyd-0cmwNe-4" value="Vertical Container" style="swimlane;" vertex="1" parent="Fjjj6daxXpXyd-0cmwNe-0">
          <mxGeometry x="930" y="50" width="200" height="200" as="geometry" />
        </mxCell>
        <mxCell id="Fjjj6daxXpXyd-0cmwNe-5" value="" style="swimlane;startSize=0;" vertex="1" parent="WIyWlLk6GJQsqaUBKTNV-1">
          <mxGeometry x="40" y="-570" width="1280" height="760" as="geometry" />
        </mxCell>
        <mxCell id="Fjjj6daxXpXyd-0cmwNe-7" value="&lt;h1&gt;Board Layer&lt;/h1&gt;" style="text;html=1;strokeColor=none;fillColor=none;spacing=5;spacingTop=-20;whiteSpace=wrap;overflow=hidden;rounded=0;" vertex="1" parent="Fjjj6daxXpXyd-0cmwNe-5">
          <mxGeometry x="20" y="30" width="190" height="120" as="geometry" />
        </mxCell>
        <mxCell id="Fjjj6daxXpXyd-0cmwNe-6" value="Board" style="swimlane;" vertex="1" parent="Fjjj6daxXpXyd-0cmwNe-5">
          <mxGeometry x="140" y="150" width="350" height="220" as="geometry" />
        </mxCell>
        <mxCell id="Fjjj6daxXpXyd-0cmwNe-8" value="&lt;div style=&quot;text-align: left;&quot;&gt;&lt;span style=&quot;font-size: 14px; background-color: initial;&quot;&gt;- rows : int&lt;/span&gt;&lt;/div&gt;&lt;font style=&quot;font-size: 14px;&quot;&gt;&lt;div style=&quot;text-align: left;&quot;&gt;&lt;span style=&quot;background-color: initial;&quot;&gt;- columns : int&lt;/span&gt;&lt;/div&gt;&lt;/font&gt;&lt;div style=&quot;text-align: left;&quot;&gt;&lt;br&gt;&lt;/div&gt;" style="text;html=1;align=center;verticalAlign=middle;resizable=0;points=[];autosize=1;strokeColor=none;fillColor=none;" vertex="1" parent="Fjjj6daxXpXyd-0cmwNe-6">
          <mxGeometry y="30" width="110" height="60" as="geometry" />
        </mxCell>
        <mxCell id="Fjjj6daxXpXyd-0cmwNe-9" value="" style="endArrow=none;html=1;rounded=0;fontSize=14;exitX=0;exitY=0.833;exitDx=0;exitDy=0;exitPerimeter=0;" edge="1" parent="Fjjj6daxXpXyd-0cmwNe-6" source="Fjjj6daxXpXyd-0cmwNe-8">
          <mxGeometry width="50" height="50" relative="1" as="geometry">
            <mxPoint x="90" y="130" as="sourcePoint" />
            <mxPoint x="350" y="80" as="targetPoint" />
          </mxGeometry>
        </mxCell>
        <mxCell id="Fjjj6daxXpXyd-0cmwNe-10" value="&lt;div style=&quot;text-align: left;&quot;&gt;&lt;span style=&quot;background-color: initial;&quot;&gt;+ piece(row : int, columns : int) : Piece&lt;/span&gt;&lt;/div&gt;&lt;div style=&quot;text-align: left;&quot;&gt;&lt;span style=&quot;background-color: initial;&quot;&gt;+ piece(position : Position) : Piece&lt;/span&gt;&lt;/div&gt;&lt;div style=&quot;text-align: left;&quot;&gt;&lt;span style=&quot;background-color: initial;&quot;&gt;+ placePiece(piece : Piece, position : Position) : void&lt;/span&gt;&lt;/div&gt;&lt;div style=&quot;text-align: left;&quot;&gt;&lt;span style=&quot;background-color: initial;&quot;&gt;+ removePiece(position : Position) : Piece&lt;/span&gt;&lt;/div&gt;&lt;div style=&quot;text-align: left;&quot;&gt;&lt;span style=&quot;background-color: initial;&quot;&gt;+ positionExists(position : Position) : boolean&lt;/span&gt;&lt;/div&gt;&lt;div style=&quot;text-align: left;&quot;&gt;&lt;span style=&quot;background-color: initial;&quot;&gt;+ thereIsAPiece(position : Position) : boolean&lt;/span&gt;&lt;/div&gt;" style="text;html=1;align=center;verticalAlign=middle;resizable=0;points=[];autosize=1;strokeColor=none;fillColor=none;fontSize=14;" vertex="1" parent="Fjjj6daxXpXyd-0cmwNe-6">
          <mxGeometry y="90" width="350" height="110" as="geometry" />
        </mxCell>
        <mxCell id="Fjjj6daxXpXyd-0cmwNe-11" value="Pieces" style="swimlane;fontSize=14;" vertex="1" parent="Fjjj6daxXpXyd-0cmwNe-5">
          <mxGeometry x="760" y="150" width="330" height="180" as="geometry" />
        </mxCell>
        <mxCell id="Fjjj6daxXpXyd-0cmwNe-12" value="# position : Position" style="text;html=1;align=center;verticalAlign=middle;resizable=0;points=[];autosize=1;strokeColor=none;fillColor=none;fontSize=14;" vertex="1" parent="Fjjj6daxXpXyd-0cmwNe-11">
          <mxGeometry y="40" width="140" height="30" as="geometry" />
        </mxCell>
        <mxCell id="Fjjj6daxXpXyd-0cmwNe-13" value="" style="endArrow=none;html=1;rounded=0;fontSize=14;" edge="1" parent="Fjjj6daxXpXyd-0cmwNe-11">
          <mxGeometry width="50" height="50" relative="1" as="geometry">
            <mxPoint y="100" as="sourcePoint" />
            <mxPoint x="330" y="100" as="targetPoint" />
          </mxGeometry>
        </mxCell>
        <mxCell id="Fjjj6daxXpXyd-0cmwNe-14" value="&lt;div style=&quot;text-align: left;&quot;&gt;&lt;span style=&quot;background-color: initial;&quot;&gt;+ possivelMoves() : boolean&lt;/span&gt;&lt;/div&gt;&lt;div style=&quot;text-align: left;&quot;&gt;&lt;span style=&quot;background-color: initial;&quot;&gt;isThereAnyPossibleMove() : boolean&lt;/span&gt;&lt;/div&gt;" style="text;html=1;align=center;verticalAlign=middle;resizable=0;points=[];autosize=1;strokeColor=none;fillColor=none;fontSize=14;" vertex="1" parent="Fjjj6daxXpXyd-0cmwNe-11">
          <mxGeometry y="120" width="250" height="50" as="geometry" />
        </mxCell>
        <mxCell id="Fjjj6daxXpXyd-0cmwNe-15" value="" style="swimlane;startSize=0;fontSize=14;" vertex="1" parent="WIyWlLk6GJQsqaUBKTNV-1">
          <mxGeometry x="250" y="-100" width="840" height="240" as="geometry" />
        </mxCell>
        <mxCell id="Fjjj6daxXpXyd-0cmwNe-16" value="BoardException" style="swimlane;fontSize=14;" vertex="1" parent="Fjjj6daxXpXyd-0cmwNe-15">
          <mxGeometry x="40" y="60" width="256" height="110" as="geometry" />
        </mxCell>
        <mxCell id="Fjjj6daxXpXyd-0cmwNe-17" value="+ BoardException(msg : String) : void" style="text;html=1;align=center;verticalAlign=middle;resizable=0;points=[];autosize=1;strokeColor=none;fillColor=none;fontSize=14;" vertex="1" parent="Fjjj6daxXpXyd-0cmwNe-16">
          <mxGeometry x="-4" y="40" width="260" height="30" as="geometry" />
        </mxCell>
        <mxCell id="Fjjj6daxXpXyd-0cmwNe-19" value="Position" style="swimlane;fontSize=14;" vertex="1" parent="Fjjj6daxXpXyd-0cmwNe-15">
          <mxGeometry x="440" y="35" width="260" height="160" as="geometry" />
        </mxCell>
        <mxCell id="Fjjj6daxXpXyd-0cmwNe-20" value="&lt;div style=&quot;text-align: left;&quot;&gt;&lt;span style=&quot;background-color: initial;&quot;&gt;- row : int&lt;/span&gt;&lt;/div&gt;&lt;div style=&quot;text-align: left;&quot;&gt;&lt;span style=&quot;background-color: initial;&quot;&gt;- column : int&lt;/span&gt;&lt;/div&gt;" style="text;html=1;align=center;verticalAlign=middle;resizable=0;points=[];autosize=1;strokeColor=none;fillColor=none;fontSize=14;" vertex="1" parent="Fjjj6daxXpXyd-0cmwNe-19">
          <mxGeometry y="30" width="100" height="50" as="geometry" />
        </mxCell>
        <mxCell id="Fjjj6daxXpXyd-0cmwNe-21" value="" style="endArrow=none;html=1;rounded=0;fontSize=14;" edge="1" parent="Fjjj6daxXpXyd-0cmwNe-19">
          <mxGeometry width="50" height="50" relative="1" as="geometry">
            <mxPoint y="80" as="sourcePoint" />
            <mxPoint x="260" y="80" as="targetPoint" />
          </mxGeometry>
        </mxCell>
        <mxCell id="Fjjj6daxXpXyd-0cmwNe-22" value="+ setValues(row : int, column : int) : void" style="text;html=1;align=center;verticalAlign=middle;resizable=0;points=[];autosize=1;strokeColor=none;fillColor=none;fontSize=14;" vertex="1" parent="Fjjj6daxXpXyd-0cmwNe-19">
          <mxGeometry x="-10" y="100" width="270" height="30" as="geometry" />
        </mxCell>
      </root>
    </mxGraphModel>
  </diagram>
</mxfile>
